# xmcd CD database file
#
# Track frame offsets:
#	150
#	5992
#	23036
#	29665
#	44777
#	60356
#	80191
#	94794
#	122462
#	138702
#	150980
#	167499
#	186073
#	191771
#	217665
#
# Disc length: 2976 seconds
#
# Revision: 0
# Processed by: cddbd v1.5.1PL2 Copyright (c) Steve Scherf et al.
# Submitted via: CDex 1.51
#
DISCID=c90b9e0f
DTITLE=HAB I SCREAM - THE ONE [FLOW, RHYME, BEATS and LIFE]
DYEAR=1900
DGENRE=Hip Hop
TTITLE0=ise and Shine , Shine and Rise
TTITLE1=FLOW , RHYME , BEATS and LIFE feat. E.G.G.MAN
TTITLE2=チェカマフロー feat. SHIKI
TTITLE3=GET DOWN
TTITLE4=Burning Man feat. 三宅洋平
TTITLE5=ONE NIGHT SHOW feat. SHIKI
TTITLE6=グランドサーフィン surfed with Micro
TTITLE7=幸 feat. 48.9
TTITLE8=6センス
TTITLE9=ボディーガード - レベゼンアンセム feat.MC MUG
TTITLE10=THE LEGENDARY SOUL SCREAM
TTITLE11=モ・ベイの空に 〜sunrise version
TTITLE12=〜おもいはみえない風にのって
TTITLE13=アンコール feat. ヨシビィ・ダ・ガマ , MC MUG , MadBlooded , UZI , SHINNOSK8 , 三宅洋平 , タイプライター , GORI , Takuto , DEN , Mummy-D , G.K.MARYAN , RINO LATINA ? and ZEEBRA
TTITLE14=Wake Up , Wake Up , Wake Up !!!
EXTD=
EXTT0=
EXTT1=
EXTT2=
EXTT3=
EXTT4=
EXTT5=
EXTT6=
EXTT7=
EXTT8=
EXTT9=
EXTT10=
EXTT11=
EXTT12=
EXTT13=
EXTT14=
PLAYORDER=
